<?xml version="1.0" standalone="no"?><!DOCTYPE svg PUBLIC "-//W3C//DTD SVG 1.1//EN" "http://www.w3.org/Graphics/SVG/1.1/DTD/svg11.dtd"><svg t="1607176429792" class="icon" viewBox="0 0 1024 1024" version="1.1" xmlns="http://www.w3.org/2000/svg" p-id="15153" xmlns:xlink="http://www.w3.org/1999/xlink" width="150" height="150"><defs><style type="text/css"></style></defs><path d="M792.589 360C763.856 231.243 648.918 135 511.5 135c-159.058 0-288 128.942-288 288v10.5H753v0.5h172v-0.5h3c17.673 0 32 14.327 32 32v462c0 17.673-14.327 32-32 32H96c-17.673 0-32-14.327-32-32v-462c0-17.673 14.327-32 32-32h63.5V415c0-194.404 157.596-352 352-352 175.694 0 321.324 128.72 347.728 297 6.772 33-51.228 53-66.64 0zM136 497.5a8 8 0 0 0-8 8v382a8 8 0 0 0 8 8h752a8 8 0 0 0 8-8v-382a8 8 0 0 0-8-8H136z m344 190.438c-19.13-11.066-32-31.749-32-55.438 0-35.346 28.654-64 64-64 35.346 0 64 28.654 64 64 0 23.689-12.87 44.372-32 55.438V815.5c0 17.673-14.327 32-32 32-17.673 0-32-14.327-32-32V687.938z" p-id="15154" fill="#e567ce"></path></svg>