<?xml version="1.0" standalone="no"?><!DOCTYPE svg PUBLIC "-//W3C//DTD SVG 1.1//EN" "http://www.w3.org/Graphics/SVG/1.1/DTD/svg11.dtd"><svg t="1607176251278" class="icon" viewBox="0 0 1024 1024" version="1.1" xmlns="http://www.w3.org/2000/svg" p-id="14063" width="150" height="150" xmlns:xlink="http://www.w3.org/1999/xlink"><defs><style type="text/css"></style></defs><path d="M878.592 55.296 128 55.296c-47.104 0-84.992 37.888-84.992 84.992l0 750.592c0 47.104 37.888 84.992 84.992 84.992l750.592 0c47.104 0 84.992-38.912 84.992-84.992L963.584 136.192C960.512 89.088 925.696 55.296 878.592 55.296zM921.6 887.808c0 21.504-17.408 43.008-43.008 43.008L128 930.816c-21.504 0-43.008-17.408-43.008-43.008L84.992 136.192c0-21.504 17.408-43.008 43.008-43.008l750.592 0c21.504 0 43.008 17.408 43.008 43.008L921.6 887.808zM273.408 388.096c55.296 0 102.4-47.104 102.4-102.4s-47.104-102.4-102.4-102.4c-55.296-4.096-102.4 43.008-102.4 98.304C171.008 340.992 217.088 388.096 273.408 388.096zM273.408 222.208c33.792 0 63.488 29.696 63.488 64.512s-29.696 64.512-63.488 64.512c-33.792-4.096-59.392-33.792-59.392-68.608S238.592 222.208 273.408 222.208zM836.608 815.104 836.608 815.104c0-4.096-4.096-4.096-4.096-8.192L648.192 541.696l0 0c-4.096-8.192-8.192-13.312-21.504-13.312-4.096 0-13.312 4.096-13.312 4.096l-84.992 84.992L421.888 456.704c-4.096-8.192-8.192-13.312-17.408-13.312s-13.312 4.096-17.408 8.192l0 0-212.992 358.4 0 0c-4.096 4.096-4.096 8.192-4.096 13.312 0 12.288 8.192 21.504 21.504 21.504l622.592 0c13.312 0 21.504-8.192 21.504-21.504C836.608 823.296 836.608 819.2 836.608 815.104L836.608 815.104zM226.304 801.792l175.104-294.912 102.4 157.696c0 4.096 4.096 4.096 4.096 8.192l0 0c4.096 4.096 8.192 4.096 13.312 4.096s13.312-4.096 13.312-4.096l84.992-84.992L768 805.888 226.304 805.888 226.304 801.792z" p-id="14064" fill="#4caf50"></path></svg>