<?xml version="1.0" standalone="no"?><!DOCTYPE svg PUBLIC "-//W3C//DTD SVG 1.1//EN" "http://www.w3.org/Graphics/SVG/1.1/DTD/svg11.dtd"><svg t="1607396941756" class="icon" viewBox="0 0 1024 1024" version="1.1" xmlns="http://www.w3.org/2000/svg" p-id="3779" width="150" height="150" xmlns:xlink="http://www.w3.org/1999/xlink"><defs><style type="text/css"></style></defs><path d="M192 256c-35.345067 0-64-28.654933-64-64 0-35.345067 28.654933-64 64-64 35.345067 0 64 28.654933 64 64 0 35.345067-28.654933 64-64 64z m320 0c-35.345067 0-64-28.654933-64-64 0-35.345067 28.654933-64 64-64 35.345067 0 64 28.654933 64 64 0 35.345067-28.654933 64-64 64z m320 0c-35.345067 0-64-28.654933-64-64 0-35.345067 28.654933-64 64-64 35.345067 0 64 28.654933 64 64 0 35.345067-28.654933 64-64 64zM192 576c-35.345067 0-64-28.654933-64-64 0-35.345067 28.654933-64 64-64 35.345067 0 64 28.654933 64 64 0 35.345067-28.654933 64-64 64z m0 320c-35.345067 0-64-28.654933-64-64 0-35.345067 28.654933-64 64-64 35.345067 0 64 28.654933 64 64 0 35.345067-28.654933 64-64 64z m320 0c-35.345067 0-64-28.654933-64-64 0-35.345067 28.654933-64 64-64 35.345067 0 64 28.654933 64 64 0 35.345067-28.654933 64-64 64z m320 0c-35.345067 0-64-28.654933-64-64 0-35.345067 28.654933-64 64-64 35.345067 0 64 28.654933 64 64 0 35.345067-28.654933 64-64 64z m-320-320c-35.345067 0-64-28.654933-64-64 0-35.345067 28.654933-64 64-64 35.345067 0 64 28.654933 64 64 0 35.345067-28.654933 64-64 64z m320 0c-35.345067 0-64-28.654933-64-64 0-35.345067 28.654933-64 64-64 35.345067 0 64 28.654933 64 64 0 35.345067-28.654933 64-64 64z" p-id="3780" fill="#ff9800"></path></svg>