<?xml version="1.0" standalone="no"?><!DOCTYPE svg PUBLIC "-//W3C//DTD SVG 1.1//EN" "http://www.w3.org/Graphics/SVG/1.1/DTD/svg11.dtd"><svg t="1607478230841" class="icon" viewBox="0 0 1024 1024" version="1.1" xmlns="http://www.w3.org/2000/svg" p-id="5208" xmlns:xlink="http://www.w3.org/1999/xlink" width="150" height="150"><defs><style type="text/css"></style></defs><path d="M512.000004 1024C229.676864 1024 0.000004 794.301808 0.000004 512 0.000004 229.67686 229.676864 0 512.000004 0 794.301812 0 1024.000004 229.67686 1024.000004 512c0 282.301808-229.698192 512-512 512z m0-981.336889C253.20557 42.663111 42.663115 253.205566 42.663115 512S253.20557 981.336889 512.000004 981.336889 981.336892 770.794434 981.336892 512 770.794437 42.663111 512.000004 42.663111z" p-id="5209" fill="#d81e06"></path><path d="M164.252982 880.971919a21.310224 21.310224 0 0 1-15.081409-36.412966l695.430047-695.408716a21.310224 21.310224 0 1 1 30.16282 30.16282l-695.430048 695.408716a21.267561 21.267561 0 0 1-15.08141 6.250146z" p-id="5210" fill="#d81e06"></path></svg>