<?xml version="1.0" standalone="no"?><!DOCTYPE svg PUBLIC "-//W3C//DTD SVG 1.1//EN" "http://www.w3.org/Graphics/SVG/1.1/DTD/svg11.dtd"><svg t="1607438239541" class="icon" viewBox="0 0 1024 1024" version="1.1" xmlns="http://www.w3.org/2000/svg" p-id="5348" xmlns:xlink="http://www.w3.org/1999/xlink" width="150" height="150"><defs><style type="text/css"></style></defs><path d="M806.932196 135.820362 264.082584 135.820362c-38.871309 0-70.375837 31.503505-70.375837 70.375837l0 81.211627c-26.909883 0.210801-48.748261 22.12081-48.748261 49.073672 0 26.955932 21.838378 48.866964 48.748261 49.052183l0 76.967976c-26.909883 0.186242-48.748261 22.097274-48.748261 49.027623 0 26.951839 21.838378 48.861848 48.748261 49.073672l0 76.967976c-26.909883 0.186242-48.748261 22.050202-48.748261 49.006134 0 26.952862 21.838378 48.862871 48.748261 49.049113l0 80.510662c0 38.870286 31.503505 70.374814 70.375837 70.374814L806.952662 886.511649c38.895869 0 70.375837-31.504528 70.375837-70.374814L877.328499 206.220758C877.30701 167.349449 845.849554 135.820362 806.932196 135.820362L806.932196 135.820362zM193.706747 712.144366c-13.959943-0.211824-25.291013-11.538801-25.291013-25.567305 0-14.005992 11.33107-25.311479 25.291013-25.523303L193.706747 712.144366 193.706747 712.144366zM193.706747 537.099654c-13.959943-0.210801-25.291013-11.56336-25.291013-25.569352 0-14.007015 11.33107-25.359574 25.291013-25.545816L193.706747 537.099654 193.706747 537.099654zM193.706747 362.030383c-13.959943-0.189312-25.291013-11.542894-25.291013-25.548886 0-14.002922 11.33107-25.355481 25.291013-25.544793L193.706747 362.030383 193.706747 362.030383zM853.846692 816.111253c0 25.875321-21.018709 46.918589-46.914496 46.918589L264.082584 863.029842c-25.875321 0-46.918589-21.043269-46.918589-46.918589L217.163995 206.196199c0-25.875321 21.043269-46.918589 46.918589-46.918589L806.952662 159.27761c25.89988 0 46.917566 21.043269 46.917566 46.918589l0 609.915054L853.846692 816.111253zM348.46032 335.027379l374.137119 0 0-23.457248L348.46032 311.570131 348.46032 335.027379 348.46032 335.027379zM348.46032 710.73732l374.137119 0 0-23.457248L348.46032 687.280072 348.46032 710.73732 348.46032 710.73732zM348.46032 522.881838l374.137119 0 0-23.457248L348.46032 499.42459 348.46032 522.881838 348.46032 522.881838zM348.46032 522.881838" p-id="5349" fill="#d4237a"></path></svg>