<?xml version="1.0" standalone="no"?><!DOCTYPE svg PUBLIC "-//W3C//DTD SVG 1.1//EN" "http://www.w3.org/Graphics/SVG/1.1/DTD/svg11.dtd"><svg t="1607175565383" class="icon" viewBox="0 0 1024 1024" version="1.1" xmlns="http://www.w3.org/2000/svg" p-id="5394" xmlns:xlink="http://www.w3.org/1999/xlink" width="96" height="96"><defs><style type="text/css"></style></defs><path d="M416 96h-320v320a64 64 0 0 0 64 64h256a64 64 0 0 0 64-64v-256a64 64 0 0 0-64-64z m0 320h-256v-256h256v256zM416 544h-256a64 64 0 0 0-64 64v320h320a64 64 0 0 0 64-64v-256a64 64 0 0 0-64-64z m0 320h-256v-256h256v256zM608 96a64 64 0 0 0-64 64v256a64 64 0 0 0 64 64h256a64 64 0 0 0 64-64v-320h-320z m256 320h-256v-256h256v256zM864 544h-256a64 64 0 0 0-64 64v256a64 64 0 0 0 64 64h320v-320a64 64 0 0 0-64-64z m0 320h-256v-256h256v256z" fill="#a671ff" p-id="5395"></path></svg>