<?xml version="1.0" standalone="no"?><!DOCTYPE svg PUBLIC "-//W3C//DTD SVG 1.1//EN" "http://www.w3.org/Graphics/SVG/1.1/DTD/svg11.dtd"><svg t="1607478598231" class="icon" viewBox="0 0 1024 1024" version="1.1" xmlns="http://www.w3.org/2000/svg" p-id="5486" width="95" height="95" xmlns:xlink="http://www.w3.org/1999/xlink"><defs><style type="text/css"></style></defs><path d="M889.482819 216.433354c-65.022922-7.503904-105.305371 44.597731-129.953747 104.21555 5.002944-81.965803-8.591679-168.550811-70.28681-187.648774-45.5228-14.09195-70.348208 27.576055-83.695191 83.680864-7.789407-65.988924-32.849152-122.44268-95.327112-124.713396C357.269451 86.411045 401.364739 277.606599 401.364739 277.606599c-27.831882-66.747193-75.090209-196.068538-187.691753-125.150348-109.278869 68.832691 42.009789 292.016797 42.009789 292.016797S121.862977 392.328433 78.060355 463.246623C-15.965112 615.496166 402.766668 928.387385 402.766668 928.387385c66.747193 16.687054 9.027607-77.175707 9.027607-77.175707C-18.604218 456.288141 154.617985 478.449883 199.038684 498.705206c56.644091 25.812899 276.178063 208.30728 123.06485-47.973618-191.896518-321.218886 14.601556-264.901229 50.091862-111.934349 19.034519 82.09781 66.226331 114.329908 79.360466 116.904547 20.304442 3.975545 33.731242-14.795984 23.529903-66.844407-27.962865-142.553717-29.560246-193.819311-0.12996-215.932957 28.41926-21.347191 87.507006-17.485233 83.563184 65.75254-15.31787 322.603419 66.551742 237.002832 70.201875 203.711612 7.072069-64.530712-17.891486-245.135046 50.060139-241.956657 91.711771 4.269233-20.141736 333.049329 52.178383 316.362274s38.132482-279.078113 152.950508-228.057089c50.060139 22.243607 13.036921 150.098553-38.880519 283.657408-41.587164 106.915032-93.765547 222.777853-133.787052 287.666722-48.626487 78.80481-17.273409 108.495016 46.181809 8.718569C1020.206092 455.603549 983.442794 227.270167 889.482819 216.433354z" p-id="5487" fill="#13227a"></path></svg>